<?xml version="1.0" encoding="utf-8"?>
<svg xmlns="http://www.w3.org/2000/svg">
  <defs>
    <symbol id="text" viewBox="0 0 24 24">
        <path d="M5 4.75A.75.75 0 0 1 5.75 4h12.5a.75.75 0 0 1 .75.75v2a.75.75 0 0 1-1.5 0V5.5h-4.75v13h1.5a.75.75 0 0 1 0 1.5h-4.5a.75.75 0 0 1 0-1.5h1.5v-13H6.5v1.25a.75.75 0 0 1-1.5 0v-2Z" fill="currentColor"/>
    </symbol>
    <symbol id="shape" viewBox="0 0 24 24">
        <!-- <path d="M12 7a.75.75 0 0 1 .75.75v3.5h3.5a.75.75 0 0 1 0 1.5h-3.5v3.5a.75.75 0 0 1-1.5 0v-3.5h-3.5a.75.75 0 0 1 0-1.5h3.5v-3.5A.75.75 0 0 1 12 7Z" fill="currentColor"/> -->
        <path d="M3 6.25A3.25 3.25 0 0 1 6.25 3h11.5A3.25 3.25 0 0 1 21 6.25v11.5A3.25 3.25 0 0 1 17.75 21H6.25A3.25 3.25 0 0 1 3 17.75V6.25ZM6.25 4.5A1.75 1.75 0 0 0 4.5 6.25v11.5c0 .966.784 1.75 1.75 1.75h11.5a1.75 1.75 0 0 0 1.75-1.75V6.25a1.75 1.75 0 0 0-1.75-1.75H6.25Z" fill="currentColor"/>
    </symbol>
    <symbol id="cursor" viewBox="0 0 24 24">
      <path d="M5.5 3.483c0-1.248 1.436-1.95 2.421-1.184l13.514 10.513c1.128.877.508 2.684-.92 2.684h-6.853c-.505 0-.981.23-1.294.626l-4.191 5.3c-.882 1.116-2.677.492-2.677-.93V3.483Zm15.014 10.513L7 3.483v17.009l4.191-5.3a3.15 3.15 0 0 1 2.47-1.196h6.853Z" fill="currentColor"/>
    </symbol>
    <symbol id="lock-open" viewBox="0 0 24 24">
      <path d="M12 2.004c1.875 0 3.334 1.206 3.928 3.003a.75.75 0 1 1-1.425.47C14.102 4.262 13.185 3.504 12 3.504c-1.407 0-2.42.958-2.496 2.551l-.005.195v1.749h8.251a2.25 2.25 0 0 1 2.245 2.097l.005.154v9.496a2.25 2.25 0 0 1-2.096 2.245l-.154.005H6.25A2.25 2.25 0 0 1 4.005 19.9L4 19.746V10.25a2.25 2.25 0 0 1 2.096-2.245L6.25 8l1.749-.001v-1.75C8 3.712 9.71 2.005 12 2.005ZM17.75 9.5H6.25a.75.75 0 0 0-.743.648l-.007.102v9.496c0 .38.282.693.648.743l.102.007h11.5a.75.75 0 0 0 .743-.648l.007-.102V10.25a.75.75 0 0 0-.648-.744L17.75 9.5Zm-5.75 4a1.499 1.499 0 1 1 0 2.996 1.499 1.499 0 0 1 0-2.997Z" fill="currentColor"/>
    </symbol>
    <symbol id="corner-top-left" viewBox="0 0 24 24">
      <path d="M5 19V13C5 8.58172 8.58172 5 13 5H19" stroke="currentColor" stroke-linecap="round" stroke-linejoin="round" fill="none"/>
    </symbol>
    <symbol id="corner-top-right" viewBox="0 0 24 24">
      <path d="M5 5L11 5C15.4183 5 19 8.58172 19 13L19 19" stroke="currentColor" stroke-linecap="round" stroke-linejoin="round" fill="none"/>
    </symbol>
    <symbol id="corner-bottom-left" viewBox="0 0 24 24">
      <path d="M19 19L13 19C8.58172 19 5 15.4183 5 11L5 5" stroke="currentColor" stroke-linecap="round" stroke-linejoin="round" fill="none"/>
    </symbol>
    <symbol id="corner-bottom-right" viewBox="0 0 24 24">
      <path d="M19 5L19 11C19 15.4183 15.4183 19 11 19L5 19" stroke="currentColor" stroke-linecap="round" stroke-linejoin="round" fill="none"/>
    </symbol>
    <symbol id="text-align-center" viewBox="0 0 24 24">
      <path d="M4 5.75A.75.75 0 0 1 4.75 5h14.5a.75.75 0 0 1 0 1.5H4.75A.75.75 0 0 1 4 5.75ZM6 18.75a.75.75 0 0 1 .75-.75h10.5a.75.75 0 0 1 0 1.5H6.75a.75.75 0 0 1-.75-.75ZM2.75 11.5a.75.75 0 0 0 0 1.5h18.5a.75.75 0 0 0 0-1.5H2.75Z" fill="currentColor"/>
    </symbol>
    <symbol id="text-align-left" viewBox="0 0 24 24">
      <path d="M2 5.75A.75.75 0 0 1 2.75 5h15.5a.75.75 0 0 1 0 1.5H2.75A.75.75 0 0 1 2 5.75ZM2 18.75a.75.75 0 0 1 .75-.75h10.5a.75.75 0 0 1 0 1.5H2.75a.75.75 0 0 1-.75-.75ZM2.75 11.5a.75.75 0 0 0 0 1.5h18.5a.75.75 0 0 0 0-1.5H2.75Z" fill="currentColor"/>
    </symbol>
    <symbol id="text-align-right" viewBox="0 0 24 24">
      <path d="M5 5.75A.75.75 0 0 1 5.75 5h15.5a.75.75 0 0 1 0 1.5H5.75A.75.75 0 0 1 5 5.75ZM10 18.75a.75.75 0 0 1 .75-.75h10.5a.75.75 0 0 1 0 1.5h-10.5a.75.75 0 0 1-.75-.75ZM2.75 11.5a.75.75 0 0 0 0 1.5h18.5a.75.75 0 0 0 0-1.5H2.75Z" fill="currentColor"/>    
    </symbol>
    <symbol id="chevron-down" viewBox="0 0 24 24">
      <path d="M4.22 8.47a.75.75 0 0 1 1.06 0L12 15.19l6.72-6.72a.75.75 0 1 1 1.06 1.06l-7.25 7.25a.75.75 0 0 1-1.06 0L4.22 9.53a.75.75 0 0 1 0-1.06Z" fill="currentColor"/>
    </symbol>
    <symbol id="chevron-left" viewBox="0 0 24 24">
      <path d="M15.707 4.293a1 1 0 0 1 0 1.414L9.414 12l6.293 6.293a1 1 0 0 1-1.414 1.414l-7-7a1 1 0 0 1 0-1.414l7-7a1 1 0 0 1 1.414 0Z" fill="currentColor"/>
    </symbol>
    <symbol id="chevron-right" viewBox="0 0 24 24">
      <path d="M8.293 4.293a1 1 0 0 0 0 1.414L14.586 12l-6.293 6.293a1 1 0 1 0 1.414 1.414l7-7a1 1 0 0 0 0-1.414l-7-7a1 1 0 0 0-1.414 0Z" fill="currentColor"/>
    </symbol>
    <symbol id="home" viewBox="0 0 24 24">
      <path d="M10.55 2.532a2.25 2.25 0 0 1 2.9 0l6.75 5.692c.507.428.8 1.057.8 1.72v9.803a1.75 1.75 0 0 1-1.75 1.75h-3.5a1.75 1.75 0 0 1-1.75-1.75v-5.5a.25.25 0 0 0-.25-.25h-3.5a.25.25 0 0 0-.25.25v5.5a1.75 1.75 0 0 1-1.75 1.75h-3.5A1.75 1.75 0 0 1 3 19.747V9.944c0-.663.293-1.292.8-1.72l6.75-5.692Zm1.933 1.147a.75.75 0 0 0-.966 0L4.767 9.37a.75.75 0 0 0-.267.573v9.803c0 .138.112.25.25.25h3.5a.25.25 0 0 0 .25-.25v-5.5c0-.967.784-1.75 1.75-1.75h3.5c.966 0 1.75.783 1.75 1.75v5.5c0 .138.112.25.25.25h3.5a.25.25 0 0 0 .25-.25V9.944a.75.75 0 0 0-.267-.573l-6.75-5.692Z" fill="currentColor"/>
    </symbol>
    <symbol id="templates" viewBox="0 0 24 24">
      <path d="M18.25 3A2.75 2.75 0 0 1 21 5.75v12.5A2.75 2.75 0 0 1 18.25 21H5.75A2.75 2.75 0 0 1 3 18.25V5.75A2.75 2.75 0 0 1 5.75 3h12.5Zm0 1.5H5.75c-.69 0-1.25.56-1.25 1.25v12.5c0 .69.56 1.25 1.25 1.25h12.5c.69 0 1.25-.56 1.25-1.25V5.75c0-.69-.56-1.25-1.25-1.25Zm-8.498 8c.966 0 1.75.784 1.75 1.75v2A1.75 1.75 0 0 1 9.752 18h-2a1.75 1.75 0 0 1-1.75-1.75v-2c0-.966.783-1.75 1.75-1.75h2Zm6.497 0c.967 0 1.75.784 1.75 1.75v2A1.75 1.75 0 0 1 16.25 18h-2a1.75 1.75 0 0 1-1.75-1.75v-2c0-.966.784-1.75 1.75-1.75h2ZM9.752 14h-2a.25.25 0 0 0-.25.25v2c0 .138.112.25.25.25h2a.25.25 0 0 0 .25-.25v-2a.25.25 0 0 0-.25-.25Zm6.497 0h-2a.25.25 0 0 0-.25.25v2c0 .138.112.25.25.25h2a.25.25 0 0 0 .25-.25v-2a.25.25 0 0 0-.25-.25ZM9.751 6c.966 0 1.75.784 1.75 1.75v2a1.75 1.75 0 0 1-1.75 1.75h-2A1.75 1.75 0 0 1 6 9.75v-2C6 6.784 6.784 6 7.75 6h2Zm6.497 0c.967 0 1.75.784 1.75 1.75v2a1.75 1.75 0 0 1-1.75 1.75h-2a1.75 1.75 0 0 1-1.75-1.75v-2c0-.966.784-1.75 1.75-1.75h2ZM9.751 7.5h-2a.25.25 0 0 0-.25.25v2c0 .138.112.25.25.25h2a.25.25 0 0 0 .25-.25v-2a.25.25 0 0 0-.25-.25Zm6.497 0h-2a.25.25 0 0 0-.25.25v2c0 .138.112.25.25.25h2a.25.25 0 0 0 .25-.25v-2a.25.25 0 0 0-.25-.25Z" fill="currentColor"/>
    </symbol>
    <symbol id="settings" viewBox="0 0 24 24">
      <path d="M12.012 2.25c.734.008 1.465.093 2.182.253a.75.75 0 0 1 .582.649l.17 1.527a1.384 1.384 0 0 0 1.927 1.116l1.401-.615a.75.75 0 0 1 .85.174 9.792 9.792 0 0 1 2.204 3.792.75.75 0 0 1-.271.825l-1.242.916a1.381 1.381 0 0 0 0 2.226l1.243.915a.75.75 0 0 1 .272.826 9.797 9.797 0 0 1-2.204 3.792.75.75 0 0 1-.848.175l-1.407-.617a1.38 1.38 0 0 0-1.926 1.114l-.169 1.526a.75.75 0 0 1-.572.647 9.518 9.518 0 0 1-4.406 0 .75.75 0 0 1-.572-.647l-.168-1.524a1.382 1.382 0 0 0-1.926-1.11l-1.406.616a.75.75 0 0 1-.849-.175 9.798 9.798 0 0 1-2.204-3.796.75.75 0 0 1 .272-.826l1.243-.916a1.38 1.38 0 0 0 0-2.226l-1.243-.914a.75.75 0 0 1-.271-.826 9.793 9.793 0 0 1 2.204-3.792.75.75 0 0 1 .85-.174l1.4.615a1.387 1.387 0 0 0 1.93-1.118l.17-1.526a.75.75 0 0 1 .583-.65c.717-.159 1.45-.243 2.201-.252Zm0 1.5a9.135 9.135 0 0 0-1.354.117l-.109.977A2.886 2.886 0 0 1 6.525 7.17l-.898-.394a8.293 8.293 0 0 0-1.348 2.317l.798.587a2.881 2.881 0 0 1 0 4.643l-.799.588c.32.842.776 1.626 1.348 2.322l.905-.397a2.882 2.882 0 0 1 4.017 2.318l.11.984c.889.15 1.798.15 2.687 0l.11-.984a2.881 2.881 0 0 1 4.018-2.322l.905.396a8.296 8.296 0 0 0 1.347-2.318l-.798-.588a2.881 2.881 0 0 1 0-4.643l.796-.587a8.293 8.293 0 0 0-1.348-2.317l-.896.393a2.884 2.884 0 0 1-4.023-2.324l-.11-.976a8.988 8.988 0 0 0-1.333-.117ZM12 8.25a3.75 3.75 0 1 1 0 7.5 3.75 3.75 0 0 1 0-7.5Zm0 1.5a2.25 2.25 0 1 0 0 4.5 2.25 2.25 0 0 0 0-4.5Z" fill="currentColor"/>
    </symbol>
    <symbol id="data-bar-horizontal" viewBox="0 0 24 24">
      <path d="M21 18.251a2.249 2.249 0 0 0-2.25-2.249H5.25a2.249 2.249 0 1 0 0 4.498h13.5A2.249 2.249 0 0 0 21 18.251Zm-4-6.5a2.249 2.249 0 0 0-2.25-2.249h-9.5a2.25 2.25 0 1 0 0 4.498h9.5A2.249 2.249 0 0 0 17 11.751Zm-4-6.5a2.25 2.25 0 0 0-2.25-2.25l-5.5.001a2.25 2.25 0 0 0 0 4.498h5.5A2.25 2.25 0 0 0 13 5.251Zm6.5 13a.75.75 0 0 1-.75.75H5.25a.75.75 0 0 1 0-1.499h13.5c.415 0 .75.335.75.749Zm-4-6.5a.75.75 0 0 1-.75.75h-9.5a.75.75 0 0 1 0-1.499h9.5c.415 0 .75.335.75.749Zm-4-6.5a.75.75 0 0 1-.75.75h-5.5a.75.75 0 0 1 0-1.5h5.5a.75.75 0 0 1 .75.75Z" fill="currentColor"/>
    </symbol>
    <symbol id="info" viewBox="0 0 24 24">
      <path d="M12 1.999c5.524 0 10.002 4.478 10.002 10.002 0 5.523-4.478 10.001-10.002 10.001-5.524 0-10.002-4.478-10.002-10.001C1.998 6.477 6.476 1.999 12 1.999Zm0 1.5a8.502 8.502 0 1 0 0 17.003A8.502 8.502 0 0 0 12 3.5Zm-.004 7a.75.75 0 0 1 .744.648l.007.102.003 5.502a.75.75 0 0 1-1.493.102l-.007-.101-.003-5.502a.75.75 0 0 1 .75-.75ZM12 7.003a.999.999 0 1 1 0 1.997.999.999 0 0 1 0-1.997Z" fill="currentColor"/>
    </symbol>
    <symbol id="checkmark-circle" viewBox="0 0 24 24">
      <path d="M12 2c5.523 0 10 4.477 10 10s-4.477 10-10 10S2 17.523 2 12 6.477 2 12 2Zm0 1.5a8.5 8.5 0 1 0 0 17 8.5 8.5 0 0 0 0-17Zm-1.25 9.94 4.47-4.47a.75.75 0 0 1 1.133.976l-.073.084-5 5a.75.75 0 0 1-.976.073l-.084-.073-2.5-2.5a.75.75 0 0 1 .976-1.133l.084.073 1.97 1.97 4.47-4.47-4.47 4.47Z" fill="currentColor"/>
    </symbol>
    <symbol id="braces-variable" viewBox="0 0 24 24">
      <path d="M3 6a3 3 0 0 1 3-3 1 1 0 0 1 0 2 1 1 0 0 0-1 1v3.938c0 .789-.307 1.519-.82 2.062.513.543.82 1.273.82 2.062V18a1 1 0 0 0 1 1 1 1 0 1 1 0 2 3 3 0 0 1-3-3v-3.938a1 1 0 0 0-.757-.97l-.486-.122a1 1 0 0 1 0-1.94l.486-.121A1 1 0 0 0 3 9.939V6Zm18 0a3 3 0 0 0-3-3 1 1 0 1 0 0 2 1 1 0 0 1 1 1v3.938c0 .789.307 1.519.82 2.062a2.997 2.997 0 0 0-.82 2.062V18a1 1 0 0 1-1 1 1 1 0 1 0 0 2 3 3 0 0 0 3-3v-3.938a1 1 0 0 1 .758-.97l.485-.122a1 1 0 0 0 0-1.94l-.485-.121a1 1 0 0 1-.758-.97V6Zm-11.71.886a1 1 0 1 0-1.58 1.228L10.734 12l-3.022 3.886a1 1 0 1 0 1.578 1.228L12 13.629l2.71 3.485a1 1 0 0 0 1.58-1.228L13.266 12l3.022-3.886a1 1 0 0 0-1.578-1.228L12 10.371 9.29 6.886Z" fill="currentColor"/>
    </symbol>
    <symbol id="copy" viewBox="0 0 24 24">
      <path d="M5.503 4.627 5.5 6.75v10.504a3.25 3.25 0 0 0 3.25 3.25h8.616a2.251 2.251 0 0 1-2.122 1.5H8.75A4.75 4.75 0 0 1 4 17.254V6.75c0-.98.627-1.815 1.503-2.123ZM17.75 2A2.25 2.25 0 0 1 20 4.25v13a2.25 2.25 0 0 1-2.25 2.25h-9a2.25 2.25 0 0 1-2.25-2.25v-13A2.25 2.25 0 0 1 8.75 2h9Zm0 1.5h-9a.75.75 0 0 0-.75.75v13c0 .414.336.75.75.75h9a.75.75 0 0 0 .75-.75v-13a.75.75 0 0 0-.75-.75Z" fill="currentColor"/>
    </symbol>
    <symbol id="rendless" viewBox="0 0 24 24">  
      <path d="M0 12V24H12H24V12V3.22238e-07H12H0V12ZM20.263 5.93772V8.22145H14.2007H8.13841V10.5156V12.8097H5.85467H3.57093V8.23183V3.65398H11.917H20.263V5.93772ZM20.263 15.7682V20.346H11.917H3.57093V18.0623V15.7785H9.63322H15.6955V13.4844V11.1903H17.9792H20.263V15.7682Z" fill="currentColor"/>
    </symbol>
    <symbol id="rotate-left" viewBox="0 0 24 24">
      <path d="M15.015 5c.084 0 .167.002.25.005h.017a6.79 6.79 0 0 1 3.131.883C19.976 6.79 21 8.295 21 10c0 1.708-1.027 3.216-2.596 4.118A6.833 6.833 0 0 1 15 15h-.5a.75.75 0 1 1 0-1.5h.5c.963 0 1.856-.235 2.588-.636C18.744 12.23 19.5 11.184 19.5 10s-.756-2.23-1.912-2.864a5.357 5.357 0 0 0-2.363-.632L15 6.5H8.061l1.72 1.72a.75.75 0 0 1-.977 1.133L8.72 9.28h-.001l-3-3a.75.75 0 0 1 0-1.06l3-3 .085-.073a.75.75 0 0 1 .977 1.132L8.062 5H15.015Zm5.374 15.067a.5.5 0 0 1-.25.933H4a1 1 0 0 1-1-1v-9.133a.5.5 0 0 1 .75-.433l16.639 9.633Zm-3.974-.567L4.5 12.602V19.5h11.915Z" fill="currentColor"/>
    </symbol>
    <symbol id="text-align-justify" viewBox="0 0 24 24">
      <path d="M2 5.75A.75.75 0 0 1 2.75 5h18.5a.75.75 0 0 1 0 1.5H2.75A.75.75 0 0 1 2 5.75ZM2 18.75a.75.75 0 0 1 .75-.75h18.5a.75.75 0 0 1 0 1.5H2.75a.75.75 0 0 1-.75-.75ZM2.75 11.5a.75.75 0 0 0 0 1.5h18.5a.75.75 0 0 0 0-1.5H2.75Z" fill="currentColor"/>
    </symbol>
    <symbol id="text-case-uppercase" viewBox="0 0 24 24">
      <path d="M7.707 3.5a.75.75 0 0 0-1.406-.02l-6 15.5a.75.75 0 1 0 1.399.54l1.556-4.02h7.118l1.42 4a.75.75 0 1 0 1.413-.5l-5.5-15.5ZM3.837 14 6.97 5.907 9.84 14H3.837ZM14.75 3.25A.75.75 0 0 0 14 4v15.25c0 .414.336.75.75.75h4.125a4.625 4.625 0 0 0 2.006-8.793A4.5 4.5 0 0 0 18 3.25h-3.25ZM21 7.75a3 3 0 0 1-3 3h-2.5v-6H18a3 3 0 0 1 3 3ZM18.875 18.5H15.5v-6.25h3.375a3.125 3.125 0 1 1 0 6.25Z" fill="currentColor"/>
    </symbol>
    <symbol id="text-case-title" viewBox="0 0 24 24">
      <path d="M15.75 3a.75.75 0 0 0-.75.75v15.5a.75.75 0 0 0 1.5 0v-.237c.685.618 1.554.987 2.5.987 2.21 0 4-2.015 4-4.5S21.21 11 19 11c-.946 0-1.815.37-2.5.987V3.75a.75.75 0 0 0-.75-.75Zm.75 12.5c0-1.828 1.28-3 2.5-3s2.5 1.172 2.5 3-1.28 3-2.5 3-2.5-1.172-2.5-3ZM7.76 3a.75.75 0 0 1 .697.5l5.5 15.5a.75.75 0 1 1-1.414.5l-1.42-4H4.007L2.45 19.52a.75.75 0 1 1-1.4-.54l6-15.5A.75.75 0 0 1 7.76 3Zm-.04 2.907L4.587 14h6.005L7.72 5.907Z" fill="currentColor"/>
    </symbol>
    <symbol id="text-case-lowercase" viewBox="0 0 24 24">
      <path d="M13.75 3a.75.75 0 0 1 .75.75v8.237c.685-.618 1.554-.987 2.5-.987 2.21 0 4 2.015 4 4.5S19.21 20 17 20c-.946 0-1.815-.37-2.5-.987v.237a.75.75 0 0 1-1.5 0V3.75a.75.75 0 0 1 .75-.75Zm.75 12.5c0 1.828 1.28 3 2.5 3s2.5-1.172 2.5-3-1.28-3-2.5-3-2.5 1.172-2.5 3Zm-7-4.999.287.01c1.96.098 3.128 1.226 3.208 3.045l.005.204v5.5a.75.75 0 0 1-.648.743l-.102.007a.75.75 0 0 1-.743-.648L9.5 19.26l-.001-.104c-.988.565-1.901.854-2.749.854-1.838 0-3.25-1.294-3.25-3.25 0-1.724 1.188-3.005 3.16-3.244a7.529 7.529 0 0 1 2.839.21c-.01-1.108-.556-1.655-1.786-1.717-.962-.047-1.639.088-2.035.365a.75.75 0 1 1-.861-1.228c.658-.461 1.554-.665 2.683-.645ZM9.5 15.324l-.303-.09a6.058 6.058 0 0 0-2.356-.193c-1.232.15-1.84.805-1.84 1.756 0 1.096.712 1.75 1.75 1.75.68 0 1.518-.315 2.501-.964l.248-.169v-2.09Z" fill="currentColor"/>
    </symbol>
    <symbol id="image" viewBox="0 0 24 24">
      <path d="M17.75 3A3.25 3.25 0 0 1 21 6.25v11.5A3.25 3.25 0 0 1 17.75 21H6.25A3.25 3.25 0 0 1 3 17.75V6.25A3.25 3.25 0 0 1 6.25 3h11.5Zm.58 16.401-5.805-5.686a.75.75 0 0 0-.966-.071l-.084.07-5.807 5.687c.182.064.378.099.582.099h11.5c.203 0 .399-.035.58-.099l-5.805-5.686L18.33 19.4ZM17.75 4.5H6.25A1.75 1.75 0 0 0 4.5 6.25v11.5c0 .208.036.408.103.594l5.823-5.701a2.25 2.25 0 0 1 3.02-.116l.128.116 5.822 5.702c.067-.186.104-.386.104-.595V6.25a1.75 1.75 0 0 0-1.75-1.75Zm-2.498 2a2.252 2.252 0 1 1 0 4.504 2.252 2.252 0 0 1 0-4.504Zm0 1.5a.752.752 0 1 0 0 1.504.752.752 0 0 0 0-1.504Z" fill="currentColor"/>
    </symbol>
    <symbol id="arrow-upload" viewBox="0 0 24 24">
      <path d="M5.25 3.495h13.498a.75.75 0 0 0 .101-1.493l-.101-.007H5.25a.75.75 0 0 0-.102 1.493l.102.007Zm6.633 18.498L12 22a1 1 0 0 0 .993-.884L13 21V8.41l3.294 3.292a1 1 0 0 0 1.32.083l.094-.083a1 1 0 0 0 .083-1.32l-.083-.094-4.997-4.997a1 1 0 0 0-1.32-.083l-.094.083-5.004 4.996a1 1 0 0 0 1.32 1.499l.094-.083L11 8.415V21a1 1 0 0 0 .883.993Z" fill="currentColor"/>
    </symbol>
    <symbol id="checkmark-circle" viewBox="0 0 24 24">
      <path d="M12 2c5.523 0 10 4.477 10 10s-4.477 10-10 10S2 17.523 2 12 6.477 2 12 2Zm3.22 6.97-4.47 4.47-1.97-1.97a.75.75 0 0 0-1.06 1.06l2.5 2.5a.75.75 0 0 0 1.06 0l5-5a.75.75 0 1 0-1.06-1.06Z" fill="currentColor"/>
    </symbol>
    <symbol id="open" viewBox="0 0 24 24">
      <path d="M6.25 4.75a1.5 1.5 0 0 0-1.5 1.5v11.5a1.5 1.5 0 0 0 1.5 1.5h11.5a1.5 1.5 0 0 0 1.5-1.5v-4a1 1 0 1 1 2 0v4a3.5 3.5 0 0 1-3.5 3.5H6.25a3.5 3.5 0 0 1-3.5-3.5V6.25a3.5 3.5 0 0 1 3.5-3.5h4a1 1 0 1 1 0 2h-4Zm6.5-1a1 1 0 0 1 1-1h6.5a1 1 0 0 1 1 1v6.5a1 1 0 1 1-2 0V6.164l-4.793 4.793a1 1 0 1 1-1.414-1.414l4.793-4.793H13.75a1 1 0 0 1-1-1Z" fill="currentColor"/>
    </symbol>
    <symbol id="text-line-spacing" viewBox="0 0 24 24">
      <path d="M20 6.414V10a1 1 0 1 1-2 0V6.414l-.293.293a1 1 0 1 1-1.414-1.414l2-2a.998.998 0 0 1 1.414 0l2 2a1 1 0 0 1-1.414 1.414L20 6.414ZM2 6a1 1 0 0 1 1-1h8a1 1 0 1 1 0 2H3a1 1 0 0 1-1-1ZM2 12a1 1 0 0 1 1-1h11a1 1 0 1 1 0 2H3a1 1 0 0 1-1-1ZM3 17a1 1 0 1 0 0 2h8a1 1 0 1 0 0-2H3ZM20 14v3.586l.293-.293a1 1 0 0 1 1.414 1.414l-2 2a1 1 0 0 1-1.414 0l-2-2a1 1 0 0 1 1.414-1.414l.293.293V14a1 1 0 1 1 2 0Z" fill="currentColor"/>
    </symbol>
    <symbol id="border-bottom-double" viewBox="0 0 24 24">
      <path d="M13 5a1 1 0 1 0 0-2h-2a1 1 0 1 0 0 2h2ZM5 11a1 1 0 1 0-2 0v2a1 1 0 1 0 2 0v-2ZM4 18a1 1 0 1 1 0-2h16a1 1 0 1 1 0 2H4ZM4 21a1 1 0 1 1 0-2h16a1 1 0 1 1 0 2H4ZM20 10a1 1 0 0 0-1 1v2a1 1 0 1 0 2 0v-2a1 1 0 0 0-1-1ZM7 4a1 1 0 0 0-1-1 3 3 0 0 0-3 3 1 1 0 0 0 2 0 1 1 0 0 1 1-1 1 1 0 0 0 1-1ZM18 3a1 1 0 1 0 0 2 1 1 0 0 1 1 1 1 1 0 1 0 2 0 3 3 0 0 0-3-3Z" fill="currentColor"/>
    </symbol>
    <symbol id="border-outside" viewBox="0 0 24 24">
      <path d="M3 6a3 3 0 0 1 3-3h12a3 3 0 0 1 3 3v12a3 3 0 0 1-3 3H6a3 3 0 0 1-3-3V6Zm3-1a1 1 0 0 0-1 1v12a1 1 0 0 0 1 1h12a1 1 0 0 0 1-1V6a1 1 0 0 0-1-1H6Z" fill="currentColor"/>
    </symbol>
    <symbol id="add" viewBox="0 0 24 24">
      <path d="M11.883 3.007 12 3a1 1 0 0 1 .993.883L13 4v7h7a1 1 0 0 1 .993.883L21 12a1 1 0 0 1-.883.993L20 13h-7v7a1 1 0 0 1-.883.993L12 21a1 1 0 0 1-.993-.883L11 20v-7H4a1 1 0 0 1-.993-.883L3 12a1 1 0 0 1 .883-.993L4 11h7V4a1 1 0 0 1 .883-.993L12 3l-.117.007Z" fill="currentColor"/>
    </symbol>
    <symbol id="remove" viewBox="0 0 24 24">
      <path d="M3 12C3 11.4477 3.44772 11 4 11H20C20.5523 11 21 11.4477 21 12C21 12.5523 20.5523 13 20 13H4C3.44772 13 3 12.5523 3 12Z" fill="currentColor"/>
    </symbol>
    <symbol id="blur" viewBox="0 0 24 24">
      <path d="M3 12a9 9 0 0 1 13.977-7.5H12v1h6.225a9.05 9.05 0 0 1 1.26 1.5H12v1h8.064c.238.477.434.979.584 1.5H12v1h8.876c.081.488.124.989.124 1.5h-9v1h8.945a8.963 8.963 0 0 1-.297 1.5H12v1h8.294a8.98 8.98 0 0 1-.81 1.5H12v1h6.708A9 9 0 0 1 3 12Z" fill="currentColor"/>
    </symbol>
  </defs>
</svg>