<?xml version="1.0" encoding="utf-8"?>
<svg xmlns="http://www.w3.org/2000/svg">
  <defs>
    <symbol id="text" viewBox="0 0 24 24">
        <path d="M5 4.75A.75.75 0 0 1 5.75 4h12.5a.75.75 0 0 1 .75.75v2a.75.75 0 0 1-1.5 0V5.5h-4.75v13h1.5a.75.75 0 0 1 0 1.5h-4.5a.75.75 0 0 1 0-1.5h1.5v-13H6.5v1.25a.75.75 0 0 1-1.5 0v-2Z" fill="currentColor"/>
    </symbol>
    <symbol id="shape" viewBox="0 0 24 24">
        <path d="M12 7a.75.75 0 0 1 .75.75v3.5h3.5a.75.75 0 0 1 0 1.5h-3.5v3.5a.75.75 0 0 1-1.5 0v-3.5h-3.5a.75.75 0 0 1 0-1.5h3.5v-3.5A.75.75 0 0 1 12 7Z" fill="currentColor"/>
        <!-- <path d="M3 6.25A3.25 3.25 0 0 1 6.25 3h11.5A3.25 3.25 0 0 1 21 6.25v11.5A3.25 3.25 0 0 1 17.75 21H6.25A3.25 3.25 0 0 1 3 17.75V6.25ZM6.25 4.5A1.75 1.75 0 0 0 4.5 6.25v11.5c0 .966.784 1.75 1.75 1.75h11.5a1.75 1.75 0 0 0 1.75-1.75V6.25a1.75 1.75 0 0 0-1.75-1.75H6.25Z" fill="currentColor"/> -->
    </symbol>
    <symbol id="cursor" viewBox="0 0 24 24">
      <path d="M5.5 3.483c0-1.248 1.436-1.95 2.421-1.184l13.514 10.513c1.128.877.508 2.684-.92 2.684h-6.853c-.505 0-.981.23-1.294.626l-4.191 5.3c-.882 1.116-2.677.492-2.677-.93V3.483Zm15.014 10.513L7 3.483v17.009l4.191-5.3a3.15 3.15 0 0 1 2.47-1.196h6.853Z" fill="currentColor"/>
    </symbol>
  </defs>
</svg>