<?xml version="1.0" encoding="utf-8"?>
<svg xmlns="http://www.w3.org/2000/svg">
  <defs>
    <symbol id="text" viewBox="0 0 24 24">
        <path d="M5 4.75A.75.75 0 0 1 5.75 4h12.5a.75.75 0 0 1 .75.75v2a.75.75 0 0 1-1.5 0V5.5h-4.75v13h1.5a.75.75 0 0 1 0 1.5h-4.5a.75.75 0 0 1 0-1.5h1.5v-13H6.5v1.25a.75.75 0 0 1-1.5 0v-2Z" fill="currentColor"/>
    </symbol>
    <symbol id="shape" viewBox="0 0 24 24">
        <!-- <path d="M12 7a.75.75 0 0 1 .75.75v3.5h3.5a.75.75 0 0 1 0 1.5h-3.5v3.5a.75.75 0 0 1-1.5 0v-3.5h-3.5a.75.75 0 0 1 0-1.5h3.5v-3.5A.75.75 0 0 1 12 7Z" fill="currentColor"/> -->
        <path d="M3 6.25A3.25 3.25 0 0 1 6.25 3h11.5A3.25 3.25 0 0 1 21 6.25v11.5A3.25 3.25 0 0 1 17.75 21H6.25A3.25 3.25 0 0 1 3 17.75V6.25ZM6.25 4.5A1.75 1.75 0 0 0 4.5 6.25v11.5c0 .966.784 1.75 1.75 1.75h11.5a1.75 1.75 0 0 0 1.75-1.75V6.25a1.75 1.75 0 0 0-1.75-1.75H6.25Z" fill="currentColor"/>
    </symbol>
    <symbol id="cursor" viewBox="0 0 24 24">
      <path d="M5.5 3.483c0-1.248 1.436-1.95 2.421-1.184l13.514 10.513c1.128.877.508 2.684-.92 2.684h-6.853c-.505 0-.981.23-1.294.626l-4.191 5.3c-.882 1.116-2.677.492-2.677-.93V3.483Zm15.014 10.513L7 3.483v17.009l4.191-5.3a3.15 3.15 0 0 1 2.47-1.196h6.853Z" fill="currentColor"/>
    </symbol>
    <symbol id="lock-open" viewBox="0 0 24 24">
      <path d="M12 2.004c1.875 0 3.334 1.206 3.928 3.003a.75.75 0 1 1-1.425.47C14.102 4.262 13.185 3.504 12 3.504c-1.407 0-2.42.958-2.496 2.551l-.005.195v1.749h8.251a2.25 2.25 0 0 1 2.245 2.097l.005.154v9.496a2.25 2.25 0 0 1-2.096 2.245l-.154.005H6.25A2.25 2.25 0 0 1 4.005 19.9L4 19.746V10.25a2.25 2.25 0 0 1 2.096-2.245L6.25 8l1.749-.001v-1.75C8 3.712 9.71 2.005 12 2.005ZM17.75 9.5H6.25a.75.75 0 0 0-.743.648l-.007.102v9.496c0 .38.282.693.648.743l.102.007h11.5a.75.75 0 0 0 .743-.648l.007-.102V10.25a.75.75 0 0 0-.648-.744L17.75 9.5Zm-5.75 4a1.499 1.499 0 1 1 0 2.996 1.499 1.499 0 0 1 0-2.997Z" fill="currentColor"/>
    </symbol>
    <symbol id="corner-top-left" viewBox="0 0 24 24">
      <path d="M5 19V13C5 8.58172 8.58172 5 13 5H19" stroke="currentColor" stroke-linecap="round" stroke-linejoin="round" fill="none"/>
    </symbol>
    <symbol id="corner-top-right" viewBox="0 0 24 24">
      <path d="M5 5L11 5C15.4183 5 19 8.58172 19 13L19 19" stroke="currentColor" stroke-linecap="round" stroke-linejoin="round" fill="none"/>
    </symbol>
    <symbol id="corner-bottom-left" viewBox="0 0 24 24">
      <path d="M19 19L13 19C8.58172 19 5 15.4183 5 11L5 5" stroke="currentColor" stroke-linecap="round" stroke-linejoin="round" fill="none"/>
    </symbol>
    <symbol id="corner-bottom-right" viewBox="0 0 24 24">
      <path d="M19 5L19 11C19 15.4183 15.4183 19 11 19L5 19" stroke="currentColor" stroke-linecap="round" stroke-linejoin="round" fill="none"/>
    </symbol>
    <symbol id="text-align-center" viewBox="0 0 24 24">
      <path d="M4 5.75A.75.75 0 0 1 4.75 5h14.5a.75.75 0 0 1 0 1.5H4.75A.75.75 0 0 1 4 5.75ZM6 18.75a.75.75 0 0 1 .75-.75h10.5a.75.75 0 0 1 0 1.5H6.75a.75.75 0 0 1-.75-.75ZM2.75 11.5a.75.75 0 0 0 0 1.5h18.5a.75.75 0 0 0 0-1.5H2.75Z" fill="currentColor"/>
    </symbol>
    <symbol id="text-align-left" viewBox="0 0 24 24">
      <path d="M2 5.75A.75.75 0 0 1 2.75 5h15.5a.75.75 0 0 1 0 1.5H2.75A.75.75 0 0 1 2 5.75ZM2 18.75a.75.75 0 0 1 .75-.75h10.5a.75.75 0 0 1 0 1.5H2.75a.75.75 0 0 1-.75-.75ZM2.75 11.5a.75.75 0 0 0 0 1.5h18.5a.75.75 0 0 0 0-1.5H2.75Z" fill="currentColor"/>
    </symbol>
    <symbol id="text-align-right" viewBox="0 0 24 24">
      <path d="M5 5.75A.75.75 0 0 1 5.75 5h15.5a.75.75 0 0 1 0 1.5H5.75A.75.75 0 0 1 5 5.75ZM10 18.75a.75.75 0 0 1 .75-.75h10.5a.75.75 0 0 1 0 1.5h-10.5a.75.75 0 0 1-.75-.75ZM2.75 11.5a.75.75 0 0 0 0 1.5h18.5a.75.75 0 0 0 0-1.5H2.75Z" fill="currentColor"/>    
    </symbol>
    <symbol id="chevron-down" viewBox="0 0 24 24">
      <path d="M4.22 8.47a.75.75 0 0 1 1.06 0L12 15.19l6.72-6.72a.75.75 0 1 1 1.06 1.06l-7.25 7.25a.75.75 0 0 1-1.06 0L4.22 9.53a.75.75 0 0 1 0-1.06Z" fill="currentColor"/>
    </symbol>
    <symbol id="chevron-left" viewBox="0 0 24 24">
      <path d="M15.707 4.293a1 1 0 0 1 0 1.414L9.414 12l6.293 6.293a1 1 0 0 1-1.414 1.414l-7-7a1 1 0 0 1 0-1.414l7-7a1 1 0 0 1 1.414 0Z" fill="currentColor"/>
    </symbol>
    <symbol id="home" viewBox="0 0 24 24">
      <path d="M10.55 2.532a2.25 2.25 0 0 1 2.9 0l6.75 5.692c.507.428.8 1.057.8 1.72v9.803a1.75 1.75 0 0 1-1.75 1.75h-3.5a1.75 1.75 0 0 1-1.75-1.75v-5.5a.25.25 0 0 0-.25-.25h-3.5a.25.25 0 0 0-.25.25v5.5a1.75 1.75 0 0 1-1.75 1.75h-3.5A1.75 1.75 0 0 1 3 19.747V9.944c0-.663.293-1.292.8-1.72l6.75-5.692Zm1.933 1.147a.75.75 0 0 0-.966 0L4.767 9.37a.75.75 0 0 0-.267.573v9.803c0 .138.112.25.25.25h3.5a.25.25 0 0 0 .25-.25v-5.5c0-.967.784-1.75 1.75-1.75h3.5c.966 0 1.75.783 1.75 1.75v5.5c0 .138.112.25.25.25h3.5a.25.25 0 0 0 .25-.25V9.944a.75.75 0 0 0-.267-.573l-6.75-5.692Z" fill="currentColor"/>
    </symbol>
    <symbol id="templates" viewBox="0 0 24 24">
      <path d="M18.25 3A2.75 2.75 0 0 1 21 5.75v12.5A2.75 2.75 0 0 1 18.25 21H5.75A2.75 2.75 0 0 1 3 18.25V5.75A2.75 2.75 0 0 1 5.75 3h12.5Zm0 1.5H5.75c-.69 0-1.25.56-1.25 1.25v12.5c0 .69.56 1.25 1.25 1.25h12.5c.69 0 1.25-.56 1.25-1.25V5.75c0-.69-.56-1.25-1.25-1.25Zm-8.498 8c.966 0 1.75.784 1.75 1.75v2A1.75 1.75 0 0 1 9.752 18h-2a1.75 1.75 0 0 1-1.75-1.75v-2c0-.966.783-1.75 1.75-1.75h2Zm6.497 0c.967 0 1.75.784 1.75 1.75v2A1.75 1.75 0 0 1 16.25 18h-2a1.75 1.75 0 0 1-1.75-1.75v-2c0-.966.784-1.75 1.75-1.75h2ZM9.752 14h-2a.25.25 0 0 0-.25.25v2c0 .138.112.25.25.25h2a.25.25 0 0 0 .25-.25v-2a.25.25 0 0 0-.25-.25Zm6.497 0h-2a.25.25 0 0 0-.25.25v2c0 .138.112.25.25.25h2a.25.25 0 0 0 .25-.25v-2a.25.25 0 0 0-.25-.25ZM9.751 6c.966 0 1.75.784 1.75 1.75v2a1.75 1.75 0 0 1-1.75 1.75h-2A1.75 1.75 0 0 1 6 9.75v-2C6 6.784 6.784 6 7.75 6h2Zm6.497 0c.967 0 1.75.784 1.75 1.75v2a1.75 1.75 0 0 1-1.75 1.75h-2a1.75 1.75 0 0 1-1.75-1.75v-2c0-.966.784-1.75 1.75-1.75h2ZM9.751 7.5h-2a.25.25 0 0 0-.25.25v2c0 .138.112.25.25.25h2a.25.25 0 0 0 .25-.25v-2a.25.25 0 0 0-.25-.25Zm6.497 0h-2a.25.25 0 0 0-.25.25v2c0 .138.112.25.25.25h2a.25.25 0 0 0 .25-.25v-2a.25.25 0 0 0-.25-.25Z" fill="currentColor"/>
    </symbol>
    <symbol id="settings" viewBox="0 0 24 24">
      <path d="M12.012 2.25c.734.008 1.465.093 2.182.253a.75.75 0 0 1 .582.649l.17 1.527a1.384 1.384 0 0 0 1.927 1.116l1.401-.615a.75.75 0 0 1 .85.174 9.792 9.792 0 0 1 2.204 3.792.75.75 0 0 1-.271.825l-1.242.916a1.381 1.381 0 0 0 0 2.226l1.243.915a.75.75 0 0 1 .272.826 9.797 9.797 0 0 1-2.204 3.792.75.75 0 0 1-.848.175l-1.407-.617a1.38 1.38 0 0 0-1.926 1.114l-.169 1.526a.75.75 0 0 1-.572.647 9.518 9.518 0 0 1-4.406 0 .75.75 0 0 1-.572-.647l-.168-1.524a1.382 1.382 0 0 0-1.926-1.11l-1.406.616a.75.75 0 0 1-.849-.175 9.798 9.798 0 0 1-2.204-3.796.75.75 0 0 1 .272-.826l1.243-.916a1.38 1.38 0 0 0 0-2.226l-1.243-.914a.75.75 0 0 1-.271-.826 9.793 9.793 0 0 1 2.204-3.792.75.75 0 0 1 .85-.174l1.4.615a1.387 1.387 0 0 0 1.93-1.118l.17-1.526a.75.75 0 0 1 .583-.65c.717-.159 1.45-.243 2.201-.252Zm0 1.5a9.135 9.135 0 0 0-1.354.117l-.109.977A2.886 2.886 0 0 1 6.525 7.17l-.898-.394a8.293 8.293 0 0 0-1.348 2.317l.798.587a2.881 2.881 0 0 1 0 4.643l-.799.588c.32.842.776 1.626 1.348 2.322l.905-.397a2.882 2.882 0 0 1 4.017 2.318l.11.984c.889.15 1.798.15 2.687 0l.11-.984a2.881 2.881 0 0 1 4.018-2.322l.905.396a8.296 8.296 0 0 0 1.347-2.318l-.798-.588a2.881 2.881 0 0 1 0-4.643l.796-.587a8.293 8.293 0 0 0-1.348-2.317l-.896.393a2.884 2.884 0 0 1-4.023-2.324l-.11-.976a8.988 8.988 0 0 0-1.333-.117ZM12 8.25a3.75 3.75 0 1 1 0 7.5 3.75 3.75 0 0 1 0-7.5Zm0 1.5a2.25 2.25 0 1 0 0 4.5 2.25 2.25 0 0 0 0-4.5Z" fill="currentColor"/>
    </symbol>
    <symbol id="data-bar-horizontal" viewBox="0 0 24 24">
      <path d="M21 18.251a2.249 2.249 0 0 0-2.25-2.249H5.25a2.249 2.249 0 1 0 0 4.498h13.5A2.249 2.249 0 0 0 21 18.251Zm-4-6.5a2.249 2.249 0 0 0-2.25-2.249h-9.5a2.25 2.25 0 1 0 0 4.498h9.5A2.249 2.249 0 0 0 17 11.751Zm-4-6.5a2.25 2.25 0 0 0-2.25-2.25l-5.5.001a2.25 2.25 0 0 0 0 4.498h5.5A2.25 2.25 0 0 0 13 5.251Zm6.5 13a.75.75 0 0 1-.75.75H5.25a.75.75 0 0 1 0-1.499h13.5c.415 0 .75.335.75.749Zm-4-6.5a.75.75 0 0 1-.75.75h-9.5a.75.75 0 0 1 0-1.499h9.5c.415 0 .75.335.75.749Zm-4-6.5a.75.75 0 0 1-.75.75h-5.5a.75.75 0 0 1 0-1.5h5.5a.75.75 0 0 1 .75.75Z" fill="currentColor"/>
    </symbol>
    <symbol id="info" viewBox="0 0 24 24">
      <path d="M12 1.999c5.524 0 10.002 4.478 10.002 10.002 0 5.523-4.478 10.001-10.002 10.001-5.524 0-10.002-4.478-10.002-10.001C1.998 6.477 6.476 1.999 12 1.999Zm0 1.5a8.502 8.502 0 1 0 0 17.003A8.502 8.502 0 0 0 12 3.5Zm-.004 7a.75.75 0 0 1 .744.648l.007.102.003 5.502a.75.75 0 0 1-1.493.102l-.007-.101-.003-5.502a.75.75 0 0 1 .75-.75ZM12 7.003a.999.999 0 1 1 0 1.997.999.999 0 0 1 0-1.997Z" fill="currentColor"/>
    </symbol>
    <symbol id="checkmark-circle" viewBox="0 0 24 24">
      <path d="M12 2c5.523 0 10 4.477 10 10s-4.477 10-10 10S2 17.523 2 12 6.477 2 12 2Zm0 1.5a8.5 8.5 0 1 0 0 17 8.5 8.5 0 0 0 0-17Zm-1.25 9.94 4.47-4.47a.75.75 0 0 1 1.133.976l-.073.084-5 5a.75.75 0 0 1-.976.073l-.084-.073-2.5-2.5a.75.75 0 0 1 .976-1.133l.084.073 1.97 1.97 4.47-4.47-4.47 4.47Z" fill="currentColor"/>
    </symbol>
    <symbol id="braces-variable" viewBox="0 0 24 24">
      <path d="M3 6a3 3 0 0 1 3-3 1 1 0 0 1 0 2 1 1 0 0 0-1 1v3.938c0 .789-.307 1.519-.82 2.062.513.543.82 1.273.82 2.062V18a1 1 0 0 0 1 1 1 1 0 1 1 0 2 3 3 0 0 1-3-3v-3.938a1 1 0 0 0-.757-.97l-.486-.122a1 1 0 0 1 0-1.94l.486-.121A1 1 0 0 0 3 9.939V6Zm18 0a3 3 0 0 0-3-3 1 1 0 1 0 0 2 1 1 0 0 1 1 1v3.938c0 .789.307 1.519.82 2.062a2.997 2.997 0 0 0-.82 2.062V18a1 1 0 0 1-1 1 1 1 0 1 0 0 2 3 3 0 0 0 3-3v-3.938a1 1 0 0 1 .758-.97l.485-.122a1 1 0 0 0 0-1.94l-.485-.121a1 1 0 0 1-.758-.97V6Zm-11.71.886a1 1 0 1 0-1.58 1.228L10.734 12l-3.022 3.886a1 1 0 1 0 1.578 1.228L12 13.629l2.71 3.485a1 1 0 0 0 1.58-1.228L13.266 12l3.022-3.886a1 1 0 0 0-1.578-1.228L12 10.371 9.29 6.886Z" fill="currentColor"/>
    </symbol>
  </defs>
</svg>