<?xml version="1.0" encoding="utf-8"?>
<svg xmlns="http://www.w3.org/2000/svg">
  <defs>
    <symbol id="text" viewBox="0 0 24 24">
        <path d="M5 4.75A.75.75 0 0 1 5.75 4h12.5a.75.75 0 0 1 .75.75v2a.75.75 0 0 1-1.5 0V5.5h-4.75v13h1.5a.75.75 0 0 1 0 1.5h-4.5a.75.75 0 0 1 0-1.5h1.5v-13H6.5v1.25a.75.75 0 0 1-1.5 0v-2Z" fill="currentColor"/>
    </symbol>
    <symbol id="shape" viewBox="0 0 24 24">
        <!-- <path d="M12 7a.75.75 0 0 1 .75.75v3.5h3.5a.75.75 0 0 1 0 1.5h-3.5v3.5a.75.75 0 0 1-1.5 0v-3.5h-3.5a.75.75 0 0 1 0-1.5h3.5v-3.5A.75.75 0 0 1 12 7Z" fill="currentColor"/> -->
        <path d="M3 6.25A3.25 3.25 0 0 1 6.25 3h11.5A3.25 3.25 0 0 1 21 6.25v11.5A3.25 3.25 0 0 1 17.75 21H6.25A3.25 3.25 0 0 1 3 17.75V6.25ZM6.25 4.5A1.75 1.75 0 0 0 4.5 6.25v11.5c0 .966.784 1.75 1.75 1.75h11.5a1.75 1.75 0 0 0 1.75-1.75V6.25a1.75 1.75 0 0 0-1.75-1.75H6.25Z" fill="currentColor"/>
    </symbol>
    <symbol id="cursor" viewBox="0 0 24 24">
      <path d="M5.5 3.483c0-1.248 1.436-1.95 2.421-1.184l13.514 10.513c1.128.877.508 2.684-.92 2.684h-6.853c-.505 0-.981.23-1.294.626l-4.191 5.3c-.882 1.116-2.677.492-2.677-.93V3.483Zm15.014 10.513L7 3.483v17.009l4.191-5.3a3.15 3.15 0 0 1 2.47-1.196h6.853Z" fill="currentColor"/>
    </symbol>
    <symbol id="lock-open" viewBox="0 0 24 24">
      <path d="M12 2.004c1.875 0 3.334 1.206 3.928 3.003a.75.75 0 1 1-1.425.47C14.102 4.262 13.185 3.504 12 3.504c-1.407 0-2.42.958-2.496 2.551l-.005.195v1.749h8.251a2.25 2.25 0 0 1 2.245 2.097l.005.154v9.496a2.25 2.25 0 0 1-2.096 2.245l-.154.005H6.25A2.25 2.25 0 0 1 4.005 19.9L4 19.746V10.25a2.25 2.25 0 0 1 2.096-2.245L6.25 8l1.749-.001v-1.75C8 3.712 9.71 2.005 12 2.005ZM17.75 9.5H6.25a.75.75 0 0 0-.743.648l-.007.102v9.496c0 .38.282.693.648.743l.102.007h11.5a.75.75 0 0 0 .743-.648l.007-.102V10.25a.75.75 0 0 0-.648-.744L17.75 9.5Zm-5.75 4a1.499 1.499 0 1 1 0 2.996 1.499 1.499 0 0 1 0-2.997Z" fill="currentColor"/>
    </symbol>
    <symbol id="corner-top-left" viewBox="0 0 24 24">
      <path d="M5 19V13C5 8.58172 8.58172 5 13 5H19" stroke="currentColor" stroke-linecap="round" stroke-linejoin="round" fill="none"/>
    </symbol>
    <symbol id="corner-top-right" viewBox="0 0 24 24">
      <path d="M5 5L11 5C15.4183 5 19 8.58172 19 13L19 19" stroke="currentColor" stroke-linecap="round" stroke-linejoin="round" fill="none"/>
    </symbol>
    <symbol id="corner-bottom-left" viewBox="0 0 24 24">
      <path d="M19 19L13 19C8.58172 19 5 15.4183 5 11L5 5" stroke="currentColor" stroke-linecap="round" stroke-linejoin="round" fill="none"/>
    </symbol>
    <symbol id="corner-bottom-right" viewBox="0 0 24 24">
      <path d="M19 5L19 11C19 15.4183 15.4183 19 11 19L5 19" stroke="currentColor" stroke-linecap="round" stroke-linejoin="round" fill="none"/>
    </symbol>
    <symbol id="text-align-center" viewBox="0 0 24 24">
      <path d="M4 5.75A.75.75 0 0 1 4.75 5h14.5a.75.75 0 0 1 0 1.5H4.75A.75.75 0 0 1 4 5.75ZM6 18.75a.75.75 0 0 1 .75-.75h10.5a.75.75 0 0 1 0 1.5H6.75a.75.75 0 0 1-.75-.75ZM2.75 11.5a.75.75 0 0 0 0 1.5h18.5a.75.75 0 0 0 0-1.5H2.75Z" fill="currentColor"/>
    </symbol>
    <symbol id="text-align-left" viewBox="0 0 24 24">
      <path d="M2 5.75A.75.75 0 0 1 2.75 5h15.5a.75.75 0 0 1 0 1.5H2.75A.75.75 0 0 1 2 5.75ZM2 18.75a.75.75 0 0 1 .75-.75h10.5a.75.75 0 0 1 0 1.5H2.75a.75.75 0 0 1-.75-.75ZM2.75 11.5a.75.75 0 0 0 0 1.5h18.5a.75.75 0 0 0 0-1.5H2.75Z" fill="currentColor"/>
    </symbol>
    <symbol id="text-align-right" viewBox="0 0 24 24">
      <path d="M5 5.75A.75.75 0 0 1 5.75 5h15.5a.75.75 0 0 1 0 1.5H5.75A.75.75 0 0 1 5 5.75ZM10 18.75a.75.75 0 0 1 .75-.75h10.5a.75.75 0 0 1 0 1.5h-10.5a.75.75 0 0 1-.75-.75ZM2.75 11.5a.75.75 0 0 0 0 1.5h18.5a.75.75 0 0 0 0-1.5H2.75Z" fill="currentColor"/>    
    </symbol>
  </defs>
</svg>